HIERARCHY
ROOT locator2
{
  OFFSET 53.6172 30.1899 0.816905
  CHANNELS 6 Xposition Yposition Zposition Zrotation Xrotation Yrotation
  JOINT koshi
  {
    OFFSET 0 0 0
    CHANNELS 6 Xposition Yposition Zposition Zrotation Xrotation Yrotation
    JOINT sippo01
    {
      OFFSET 0 42.8363 -0.548134
      CHANNELS 6 Xposition Yposition Zposition Zrotation Xrotation Yrotation
      JOINT sippo02
      {
        OFFSET 0 44.0461 -3.28882
        CHANNELS 6 Xposition Yposition Zposition Zrotation Xrotation Yrotation
        JOINT sippo03
        {
          OFFSET 0 34.1929 -2.46662
          CHANNELS 6 Xposition Yposition Zposition Zrotation Xrotation Yrotation
          JOINT sippo04
          {
            OFFSET 0 30.0959 -1.75404
            CHANNELS 6 Xposition Yposition Zposition Zrotation Xrotation Yrotation
            JOINT sippo05
            {
              OFFSET 0 28.3637 -1.75404
              CHANNELS 6 Xposition Yposition Zposition Zrotation Xrotation Yrotation
              JOINT sippo06
              {
                OFFSET 0 31.6071 -3.2043
                CHANNELS 6 Xposition Yposition Zposition Zrotation Xrotation Yrotation
                End Site
                {
                  OFFSET 0 0 0
                }
              }
            }
          }
        }
      }
    }
    JOINT R_momo
    {
      OFFSET -27.891 13.5892 3.92723
      CHANNELS 6 Xposition Yposition Zposition Zrotation Xrotation Yrotation
      JOINT R_hiza
      {
        OFFSET 0 28.01 1.8232
        CHANNELS 6 Xposition Yposition Zposition Zrotation Xrotation Yrotation
        JOINT R_ashi
        {
          OFFSET 0 24.3992 -2.49174
          CHANNELS 6 Xposition Yposition Zposition Zrotation Xrotation Yrotation
          End Site
          {
            OFFSET 0 0 0
          }
        }
      }
    }
    JOINT L_momo
    {
      OFFSET 27.891 13.5892 3.92714
      CHANNELS 6 Xposition Yposition Zposition Zrotation Xrotation Yrotation
      JOINT L_hiza
      {
        OFFSET 0 28.0098 1.82319
        CHANNELS 6 Xposition Yposition Zposition Zrotation Xrotation Yrotation
        JOINT L_ashi
        {
          OFFSET 0 24.3992 -2.49171
          CHANNELS 6 Xposition Yposition Zposition Zrotation Xrotation Yrotation
          End Site
          {
            OFFSET 0 0 0
          }
        }
      }
    }
  }
  JOINT hara
  {
    OFFSET 0 2.15392 0
    CHANNELS 6 Xposition Yposition Zposition Zrotation Xrotation Yrotation
    JOINT mune
    {
      OFFSET 0 62.0609 0.472494
      CHANNELS 6 Xposition Yposition Zposition Zrotation Xrotation Yrotation
      JOINT R_kata
      {
        OFFSET 22.6695 9.65301 -5.3622
        CHANNELS 6 Xposition Yposition Zposition Zrotation Xrotation Yrotation
        JOINT R_hiji
        {
          OFFSET 0 25.813 1.69098
          CHANNELS 6 Xposition Yposition Zposition Zrotation Xrotation Yrotation
          JOINT R_te
          {
            OFFSET 0 28.5636 -0.966307
            CHANNELS 6 Xposition Yposition Zposition Zrotation Xrotation Yrotation
            End Site
            {
              OFFSET 0 0 0
            }
          }
        }
      }
      JOINT L_kata
      {
        OFFSET -22.6695 9.65298 -5.3622
        CHANNELS 6 Xposition Yposition Zposition Zrotation Xrotation Yrotation
        JOINT L_hiji
        {
          OFFSET 0 25.813 1.69102
          CHANNELS 6 Xposition Yposition Zposition Zrotation Xrotation Yrotation
          JOINT L_te
          {
            OFFSET 0 28.5636 -0.966295
            CHANNELS 6 Xposition Yposition Zposition Zrotation Xrotation Yrotation
            End Site
            {
              OFFSET 0 0 0
            }
          }
        }
      }
      JOINT kubi
      {
        OFFSET 0 23.1438 -0.944988
        CHANNELS 6 Xposition Yposition Zposition Zrotation Xrotation Yrotation
        JOINT atama
        {
          OFFSET 0 20.8625 4.12737
          CHANNELS 6 Xposition Yposition Zposition Zrotation Xrotation Yrotation
          JOINT ago
          {
            OFFSET 0 7.552 -7.58201
            CHANNELS 6 Xposition Yposition Zposition Zrotation Xrotation Yrotation
            End Site
            {
              OFFSET 0 0 0
            }
          }
        }
      }
    }
  }
}
MOTION
Frames:	5
Frame Time:	0.0333333
75.5984 29.9399 0.282717 -90 -3.50835e-015 -90 0 0 0 -172.566 1.71647 0.404246 9.38773e-007 42.8363 -0.548136 1.78725 -13.2771 3.98941 1.78814e-006 44.0461 -3.28882 4.55348 9.94106 -3.89388 -8.57531e-007 34.193 -2.46661 5.23746 4.21715 0.587574 -1.61908e-006 30.0959 -1.75404 7.25006 11.2454 -1.27876 -1.55792e-007 28.3637 -1.75403 9.88699 -4.37251 5.39867 -3.60865e-007 31.6072 -3.2043 5.68508 -3.38464 -6.89776 -27.891 13.5892 3.92723 75.4704 -39.5696 -64.0749 -7.62939e-006 28.01 1.8232 16.2083 -79.5202 -13.9093 -7.83027e-006 24.3992 -2.49173 -163.783 31.9251 -168.779 27.891 13.5892 3.92714 -73.9757 -24.5676 83.3655 -3.8147e-006 28.0098 1.82319 -3.01555 -49.3445 16.8215 1.12732e-006 24.3992 -2.49172 121.17 75.9526 174.205 6.07684e-007 2.15392 -7.10543e-015 -3.42652 -2.10899 -3.3311 -5.58794e-009 62.0609 0.472498 3.97569e-016 -1.06847e-015 1.59028e-015 22.6695 9.653 -5.36221 -138.945 31.9873 32.0058 -2.84217e-014 25.813 1.69097 -179.966 -67.1634 -176.841 -3.87289e-006 28.5636 -0.966314 22.1904 -4.98091 -75.3415 -22.6695 9.65299 -5.3622 139.363 -10.2271 -53.6896 -3.8147e-006 25.813 1.69102 -179.516 -61.0751 -175.62 -7.47004e-006 28.5636 -0.966296 -56.2026 37.0973 124.521 2.70858e-009 23.1438 -0.944994 -10.0136 7.87211 -3.67688 -3.72536e-008 20.8625 4.12737 14.0434 8.04385 13.7512 4.47032e-008 7.55205 -7.582 3.71782e-009 -15.684 -3.22596e-010 
86.5644 29.7609 0.540836 -90 -3.50835e-015 -90 0 0 0 -173.485 0.427941 0.452036 9.38773e-007 42.8363 -0.548136 0.697409 -8.58381 4.29165 1.78814e-006 44.0461 -3.28882 2.22721 11.482 -1.29836 -5.72131e-007 34.193 -2.46661 2.49541 9.28443 4.49811 -8.15569e-007 30.0959 -1.75404 6.86441 13.7186 -2.6662 1.03633e-006 28.3637 -1.75403 9.54295 3.98804 3.88354 8.44288e-007 31.6072 -3.20429 5.77092 2.61212 -10.1047 -27.891 13.5892 3.92723 66.9457 -39.4383 -74.2261 -7.62939e-006 28.01 1.8232 10.3405 -73.3798 -20.6392 -8.15359e-006 24.3992 -2.49173 -162.538 30.9332 -167.152 27.891 13.5892 3.92714 -71.1228 -19.6794 78.1729 -3.8147e-006 28.0098 1.82319 -4.82705 -56.6573 22.8943 1.52149e-006 24.3992 -2.49172 123.841 76.5933 175.664 6.07684e-007 2.15392 -1.06581e-014 2.08499 1.33996 -3.42165 -5.58793e-009 62.0609 0.472498 1.3621e-031 -3.926e-015 1.98785e-015 22.6695 9.653 -5.36221 -140.969 18.4786 37.3543 0 25.813 1.69097 -179.22 -83.7306 -178.036 -3.83571e-006 28.5636 -0.966314 8.58489 -5.99938 -79.5189 -22.6695 9.65299 -5.3622 158.474 -3.02587 -27.1281 -3.8147e-006 25.813 1.69102 -179.479 -60.1699 -172.283 -7.29906e-006 28.5636 -0.966296 -62.9754 11.4065 124.69 2.70858e-009 23.1438 -0.944994 -12.242 10.2739 -3.49612 -3.72537e-008 20.8625 4.12737 17.4378 11.0274 9.84113 4.47032e-008 7.55205 -7.582 -5.74352e-006 -30.3151 5.74677e-006 
97.4171 29.8743 0.793943 -90 -3.50835e-015 -90 0 0 0 -174.819 -0.672302 0.437471 9.38773e-007 42.8363 -0.548136 0.0832788 -5.15131 4.97909 1.78814e-006 44.0461 -3.28882 -0.188603 12.4467 0.827212 -2.72505e-007 34.193 -2.46661 -0.481217 12.202 7.4028 7.06745e-008 30.0959 -1.75404 5.08901 15.0372 -3.6374 2.84746e-006 28.3637 -1.75403 8.19132 12.8896 2.73846 3.23796e-006 31.6072 -3.20429 5.19813 7.45155 -12.6687 -27.891 13.5892 3.92723 63.0178 -38.4634 -79.7378 -7.62939e-006 28.01 1.8232 8.69393 -69.917 -22.6131 -8.3218e-006 24.3992 -2.49173 -161.185 30.7161 -166.867 27.891 13.5892 3.92714 -63.8964 -15.9362 69.8849 -3.8147e-006 28.0098 1.82319 -6.20761 -62.2316 25.6378 1.46642e-006 24.3992 -2.49172 132.468 77.8636 178.398 6.07684e-007 2.15392 -3.55271e-015 7.18743 4.90811 -4.6463 -5.58794e-009 62.0609 0.472498 7.95139e-016 1.19271e-015 -7.95139e-016 22.6695 9.653 -5.36221 -145.306 -1.71021 33.6042 0 25.813 1.69097 -0.418077 -81.12 -1.12806 -3.83856e-006 28.5636 -0.966315 27.373 -9.80377 -89.5291 -22.6695 9.65299 -5.3622 167.756 0.512062 -14.318 -3.8147e-006 25.813 1.69102 -179.121 -70.8264 -170.606 -7.34529e-006 28.5636 -0.966297 -71.8693 -8.03865 115.551 2.70858e-009 23.1438 -0.944994 -12.6285 6.91242 -1.76655 -3.72537e-008 20.8625 4.12737 10.9185 9.44829 5.56683 4.47032e-008 7.55205 -7.582 8.67741e-006 -40.8875 1.32508e-005 
108.736 30.4037 1.00373 -90 -3.50835e-015 -90 0 0 0 -176.165 -1.78813 0.370667 9.38773e-007 42.8363 -0.548136 -0.531128 -4.77328 5.7186 1.78814e-006 44.0461 -3.28882 -2.58207 12.6758 2.02641 3.96399e-008 34.193 -2.46662 -3.60975 13.7583 7.84446 1.06094e-006 30.0959 -1.75404 2.08674 15.6129 -4.43876 5.12196e-006 28.3637 -1.75404 5.2195 10.1237 3.80262 6.38652e-006 31.6072 -3.20429 3.81074 6.47196 -14.1811 -27.891 13.5892 3.92723 57.77 -36.6634 -84.261 -7.62939e-006 28.01 1.8232 6.89701 -64.0906 -25.5299 -8.60506e-006 24.3992 -2.49173 -160.508 32.1398 -166.559 27.891 13.5892 3.92714 -58.0345 -10.9583 59.9736 -3.8147e-006 28.0098 1.82319 -7.05481 -63.5987 26.0546 1.44204e-006 24.3992 -2.49172 140.553 79.3902 -178.142 6.07684e-007 2.15392 0 9.02185 6.79418 -5.54733 -5.58794e-009 62.0609 0.472498 1.59028e-015 -2.98177e-016 2.38542e-015 22.6695 9.653 -5.36221 -151.572 -15.1117 26.0863 1.42109e-014 25.813 1.69097 -0.102522 -61.6639 -2.48806 -3.89603e-006 28.5636 -0.966316 53.1691 -24.7912 -85.6869 -22.6695 9.65299 -5.3622 167.545 4.23433 -10.5201 -3.8147e-006 25.813 1.69102 -7.22703 -88.3904 -0.822052 -7.68335e-006 28.5636 -0.966296 -82.6537 -18.3538 95.9724 2.70857e-009 23.1438 -0.944994 -10.2027 4.73029 -0.305283 -3.72537e-008 20.8625 4.12737 0.981767 6.75165 1.94996 4.47032e-008 7.55205 -7.582 9.50975e-006 -43.4988 1.38099e-005 
121.923 30.9383 1.21557 -90 -3.50835e-015 -90 0 0 0 -177.525 -2.91734 0.249778 9.38773e-007 42.8363 -0.548136 -1.15123 -4.39043 6.47493 1.78814e-006 44.0461 -3.28882 -4.80719 11.9142 2.42668 3.46161e-007 34.193 -2.46662 -6.47029 14.6031 6.27263 2.03681e-006 30.0959 -1.75404 -1.40512 15.9722 -5.29522 7.42203e-006 28.3637 -1.75404 1.87456 -0.204364 5.02 1.04161e-005 31.6072 -3.20431 2.0784 0.29074 -15.38 -27.891 13.5892 3.92723 45.984 -33.3676 -90.6537 -7.62939e-006 28.01 1.8232 4.60733 -48.6914 -28.6606 -9.06799e-006 24.3992 -2.49173 -158.406 37.3913 -165.301 27.891 13.5892 3.92714 -43.0757 -9.84068 48.4159 -3.8147e-006 28.0098 1.82319 -5.97455 -52.0449 32.5329 2.57362e-006 24.3992 -2.49172 138.389 83.5822 -166.989 6.07684e-007 2.15392 -3.55271e-015 7.98982 6.55646 -4.74797 -5.58794e-009 62.0609 0.472498 -2.09135e-006 -3.56322e-013 1.00179e-005 22.6695 9.653 -5.36221 -157.336 -21.1675 23.1949 0 25.813 1.69097 -0.0312864 -34.6505 -1.52838 -3.87143e-006 28.5636 -0.966317 77.4747 -39.7608 -60.6533 -22.6695 9.65299 -5.3622 167.388 -1.886 -9.40336 -3.8147e-006 25.813 1.69102 -0.242482 -57.0959 1.44378 -7.76607e-006 28.5636 -0.966292 -93.6872 -21.8967 69.4125 2.70859e-009 23.1438 -0.944994 -8.44189 5.76358 -0.588027 -3.72537e-008 20.8625 4.12737 -6.63947 5.09743 -0.74604 4.47032e-008 7.55205 -7.582 -1.23172e-005 -36.1716 -7.17383e-006 
